<?xml version="1.0" standalone="no"?>
<!DOCTYPE svg PUBLIC "-//W3C//DTD SVG 20010904//EN"
 "http://www.w3.org/TR/2001/REC-SVG-20010904/DTD/svg10.dtd">
<svg version="1.0" xmlns="http://www.w3.org/2000/svg"
 width="1800.000000pt" height="1800.000000pt" viewBox="0 0 1800.000000 1800.000000"
 preserveAspectRatio="xMidYMid meet">
<g transform="translate(0.000000,1800.000000) scale(0.100000,-0.100000)"
fill="#ffffff" stroke="none">
<path d="M3322 12824 c-40 -38 -109 -81 -117 -72 -2 2 -10 20 -18 40 -11 25
-24 39 -42 44 -36 9 -94 -2 -116 -22 -17 -15 -21 -15 -62 5 -24 12 -69 27
-100 33 -48 10 -63 9 -111 -7 -61 -21 -120 -71 -161 -136 -28 -43 -36 -47 -55
-24 -14 17 -57 20 -79 6 -8 -5 -22 -24 -30 -42 -12 -25 -25 -35 -50 -40 -58
-12 -83 -48 -90 -126 -5 -59 -9 -68 -26 -68 -17 0 -20 8 -23 52 -3 59 15 103
59 142 34 30 37 56 9 71 -30 16 -54 4 -85 -42 l-28 -42 -28 32 c-45 50 -70 40
-83 -31 -6 -32 -11 -38 -29 -35 -17 2 -23 11 -25 35 -3 34 23 82 46 83 6 0 12
7 12 15 0 29 -57 18 -82 -15 -24 -33 -63 -40 -98 -18 -16 10 -23 10 -35 -3
-13 -13 -14 -20 -4 -43 12 -25 10 -30 -30 -70 -27 -27 -42 -51 -39 -62 3 -16
8 -15 38 14 29 28 40 33 77 30 55 -4 57 -22 3 -26 -36 -3 -40 -6 -40 -29 0
-14 8 -32 18 -40 15 -13 14 -14 -12 -8 -55 12 -101 -45 -68 -85 15 -17 31 -20
130 -22 139 -4 156 -22 22 -26 -61 -2 -100 -8 -110 -16 -8 -8 -25 -17 -37 -20
-13 -4 -42 -30 -65 -57 -41 -49 -72 -61 -95 -38 -8 8 -13 8 -17 0 -4 -6 -23
-11 -42 -11 -22 0 -40 -7 -51 -20 -13 -15 -30 -20 -64 -20 -38 0 -52 -6 -81
-32 -48 -43 -61 -86 -47 -147 7 -25 22 -57 35 -72 13 -14 24 -29 24 -34 0 -5
-55 -64 -122 -132 -120 -120 -124 -123 -167 -123 -27 0 -57 -8 -78 -21 -51
-32 -61 -14 -30 53 27 60 131 176 162 180 13 2 24 -6 33 -24 39 -81 155 29
122 116 -9 25 -13 26 -80 26 -79 0 -116 -18 -182 -86 -80 -85 -141 -240 -163
-416 -3 -26 -11 -51 -17 -54 -6 -4 -35 -6 -64 -5 -42 2 -57 -2 -74 -19 -27
-27 -25 -61 5 -90 21 -19 31 -22 70 -17 25 4 45 4 45 1 0 -7 -51 -96 -82 -143
-10 -14 -22 -35 -28 -46 -18 -33 -34 -59 -58 -93 -19 -26 -27 -30 -38 -21 -8
6 -14 19 -14 29 0 24 -32 50 -62 50 -33 0 -90 -39 -106 -74 -25 -50 5 -102 76
-131 41 -18 46 -32 27 -79 l-16 -37 -59 54 c-91 85 -142 83 -184 -7 -15 -31
-27 -59 -29 -63 -1 -5 23 -9 53 -10 48 -2 57 -5 82 -35 31 -37 35 -58 13 -58
-8 0 -15 4 -15 9 0 24 -69 51 -130 51 -81 0 -113 -22 -129 -86 -15 -58 -5 -72
37 -50 81 42 243 -8 230 -71 -4 -19 -11 -20 -70 -5 -31 8 -40 7 -54 -9 -9 -11
-23 -19 -30 -19 -31 0 -21 -20 14 -29 58 -16 77 -43 75 -105 -4 -77 -32 -140
-76 -170 -21 -15 -42 -26 -47 -26 -5 0 -28 -7 -50 -16 -36 -14 -40 -20 -40
-50 0 -41 7 -42 68 -9 26 14 52 25 59 25 18 0 21 -22 6 -57 -7 -18 -13 -42
-13 -54 0 -12 -6 -45 -14 -73 -8 -28 -22 -96 -32 -151 -23 -136 -21 -131 -44
-110 -18 16 -20 16 -26 1 -7 -19 1 -134 14 -192 6 -29 5 -57 -5 -95 -9 -36
-12 -78 -8 -124 3 -38 6 -105 5 -147 0 -102 0 -240 0 -330 1 -40 -2 -106 -5
-146 -4 -40 -4 -80 -1 -89 6 -14 9 -14 26 2 16 14 20 15 24 4 5 -17 24 -121
37 -202 5 -32 13 -67 19 -77 5 -10 10 -32 10 -48 0 -16 7 -43 15 -58 34 -66 5
-83 -65 -39 -53 33 -70 32 -70 -4 0 -33 30 -61 66 -61 32 0 101 -55 122 -97
11 -21 22 -62 25 -90 5 -46 3 -56 -19 -83 -14 -16 -34 -30 -44 -30 -47 0 -50
-11 -12 -47 l37 -35 41 15 c47 17 69 9 60 -21 -9 -28 -62 -60 -111 -67 -37 -6
-96 3 -137 20 -23 9 -35 -21 -20 -46 7 -10 12 -25 12 -32 0 -20 40 -52 80 -66
47 -16 120 3 159 41 37 36 50 20 21 -27 -17 -28 -30 -36 -75 -45 -30 -6 -57
-15 -60 -20 -3 -5 4 -26 15 -47 11 -21 20 -43 20 -49 0 -16 24 -24 66 -24 39
0 91 31 124 73 29 36 43 34 59 -8 15 -43 12 -48 -45 -75 -31 -15 -51 -34 -62
-57 -16 -33 -15 -36 3 -70 11 -20 36 -45 57 -57 48 -27 86 -15 111 36 19 38
40 42 51 10 3 -9 14 -29 23 -44 76 -115 142 -226 143 -242 0 -8 -29 -3 -64 10
-20 8 -76 -47 -76 -76 0 -11 12 -32 26 -47 23 -23 30 -25 80 -18 52 6 54 5 64
-20 5 -14 10 -41 10 -59 0 -55 48 -222 82 -286 32 -60 82 -118 130 -149 42
-28 63 -35 117 -38 84 -5 96 3 95 63 -1 40 -6 52 -33 76 -41 36 -82 35 -91 -2
-3 -14 -14 -26 -23 -28 -24 -5 -138 112 -165 169 -35 72 -25 113 18 74 9 -8
43 -17 75 -21 l59 -7 118 -121 c65 -66 118 -123 118 -125 0 -2 -10 -18 -23
-35 -59 -79 -54 -174 12 -224 27 -22 44 -27 81 -25 41 2 49 -1 68 -27 20 -27
26 -29 74 -26 29 2 58 5 64 7 6 2 33 -20 59 -49 27 -28 53 -52 58 -52 5 0 15
-7 23 -15 9 -8 32 -15 52 -15 43 0 76 -16 52 -24 -8 -3 -37 -7 -63 -8 -40 -3
-51 -7 -65 -30 -15 -26 -15 -29 4 -55 14 -18 32 -29 53 -31 28 -3 30 -5 20
-23 -17 -33 -4 -49 41 -49 25 0 39 -4 35 -10 -3 -5 -27 -10 -52 -10 -34 0 -53
6 -77 27 -30 25 -31 25 -34 5 -2 -13 11 -34 40 -61 38 -36 42 -42 31 -60 -7
-12 -13 -27 -13 -35 0 -22 37 -29 62 -12 32 23 55 20 74 -10 16 -24 62 -54 84
-54 21 0 9 37 -20 58 -20 15 -30 31 -30 48 0 36 18 64 40 64 17 0 20 -7 20
-44 0 -35 5 -48 22 -61 22 -15 24 -14 54 20 l30 36 28 -40 c32 -46 56 -57 86
-41 26 14 26 42 -1 66 -47 42 -70 92 -67 147 3 44 6 52 23 52 17 0 20 -7 21
-50 0 -27 5 -62 11 -76 16 -36 60 -69 94 -69 23 0 29 -6 39 -35 17 -52 72 -74
100 -40 20 24 38 18 65 -24 28 -45 53 -71 109 -112 36 -27 46 -29 123 -29 71
0 90 4 132 26 l49 27 28 -20 c45 -32 70 -36 108 -18 24 12 39 27 47 52 8 24
15 33 26 29 8 -3 18 -6 22 -6 4 0 33 -22 66 -50 53 -45 64 -50 106 -50 54 0
69 13 44 40 -22 25 -5 33 42 21 21 -6 90 -13 153 -17 65 -4 124 -13 135 -20
16 -10 29 -10 63 -1 35 9 47 9 70 -5 33 -20 202 -19 244 2 21 10 37 10 73 1
28 -7 52 -8 63 -2 9 5 69 14 132 21 63 6 132 16 153 21 47 12 64 4 42 -21 -25
-27 -10 -40 46 -40 44 0 54 5 93 40 47 43 95 72 108 64 5 -3 14 -20 22 -38 8
-20 25 -38 45 -46 27 -11 37 -10 74 5 23 10 46 22 50 26 5 3 31 -4 58 -17 39
-19 65 -24 132 -24 80 0 86 1 138 38 31 21 69 60 88 90 34 53 54 64 65 37 8
-21 69 -19 88 3 8 9 19 29 26 45 9 20 19 27 40 27 56 0 107 84 96 157 -6 43
-6 45 17 41 21 -3 24 -9 27 -50 3 -52 -13 -93 -59 -146 -34 -39 -36 -57 -9
-72 29 -16 54 -5 81 35 13 19 29 35 36 35 6 0 23 -15 37 -32 l25 -33 23 22
c15 16 22 34 21 58 -1 43 22 59 43 30 23 -32 17 -71 -16 -98 -31 -26 -40 -57
-17 -57 18 0 77 38 77 50 0 22 39 31 69 15 57 -29 87 -8 60 42 -13 24 -11 27
36 67 34 30 47 47 42 59 -9 24 -22 21 -45 -8 -16 -21 -29 -26 -70 -26 -54 -2
-76 6 -66 23 4 6 22 8 44 4 42 -7 65 9 50 34 -15 23 -12 28 20 35 42 9 66 46
49 77 -17 32 -28 38 -77 38 -53 0 -53 22 -1 31 49 9 84 30 133 82 l43 45 60
-5 c55 -5 62 -3 94 24 28 24 43 30 82 30 54 0 89 25 114 83 12 29 13 43 2 85
-6 28 -22 63 -35 78 -13 16 -24 32 -24 36 0 4 53 63 119 132 l118 123 56 1
c39 1 62 7 76 19 27 24 51 15 43 -16 -11 -44 -71 -135 -116 -176 -52 -48 -82
-54 -96 -17 -13 34 -51 33 -91 -3 -27 -24 -32 -36 -33 -74 -1 -54 1 -57 48
-68 112 -25 235 64 310 223 33 70 65 187 67 242 2 82 8 90 71 91 70 1 108 23
108 62 0 17 -10 38 -24 51 -21 20 -31 22 -70 17 -25 -4 -46 -5 -46 -2 0 11 25
63 49 101 14 22 30 48 36 57 81 136 98 159 113 156 9 -2 19 -14 20 -28 11 -76
102 -78 161 -4 39 50 18 107 -54 143 -25 13 -49 29 -51 35 -4 10 21 86 29 86
1 0 29 -25 61 -55 49 -46 64 -55 95 -55 20 0 44 6 52 13 23 18 61 88 55 102
-2 7 -27 18 -55 25 -35 8 -59 21 -76 42 -29 34 -32 48 -10 48 8 0 15 -4 15 -9
0 -12 103 -61 129 -61 10 0 39 8 63 19 37 16 47 26 62 65 26 68 19 77 -46 59
-63 -17 -128 -11 -172 16 -67 42 -70 99 -3 72 59 -24 74 -24 86 -2 6 11 24 27
38 35 l27 14 -42 7 c-29 5 -50 16 -68 38 -23 28 -25 36 -19 86 11 85 34 122
97 153 29 15 64 30 78 33 38 11 50 25 50 56 0 38 -20 38 -93 -2 -68 -36 -78
-27 -54 48 9 27 23 84 32 128 9 44 20 98 25 120 5 22 12 64 16 93 7 55 21 65
42 32 22 -36 32 -22 32 45 0 41 -7 83 -21 116 -22 56 -20 101 7 165 19 45 18
138 -1 154 -21 17 -20 147 0 174 18 23 20 102 4 143 -26 68 -28 116 -8 173 18
52 27 180 12 180 -4 0 -17 -10 -30 -21 -29 -28 -28 -33 -63 187 -5 34 -14 74
-20 88 -5 15 -10 38 -10 51 0 14 -8 40 -17 60 -27 57 -7 65 70 27 36 -18 67
-32 71 -32 3 0 6 16 6 35 0 33 -4 38 -42 55 -24 11 -50 20 -59 20 -8 0 -34 16
-56 35 -34 29 -42 43 -53 97 -6 35 -14 71 -16 80 -7 24 53 88 81 88 34 0 41
18 11 29 -13 6 -29 18 -34 27 -9 16 -13 16 -55 2 -32 -10 -49 -12 -57 -4 -19
19 -10 36 38 66 55 34 133 41 183 14 52 -26 62 -13 39 47 -28 71 -52 88 -122
89 -64 0 -93 -9 -125 -39 -47 -44 -60 -14 -15 35 23 25 39 33 85 38 31 4 57 9
57 11 0 3 -12 29 -27 59 -25 52 -54 76 -89 76 -26 0 -76 -32 -116 -75 -39 -41
-45 -41 -65 5 -14 33 -2 50 50 75 38 18 67 58 67 93 0 42 -74 102 -126 102
-27 0 -52 -23 -60 -56 -9 -35 -32 -27 -58 21 -12 22 -44 73 -71 113 -92 136
-96 150 -34 144 32 -3 46 1 65 19 59 55 2 127 -90 114 -28 -5 -46 -3 -51 4 -4
7 -10 44 -15 84 -23 199 -107 364 -222 438 -42 27 -60 32 -113 33 -77 1 -90
-9 -89 -71 1 -39 6 -51 33 -75 41 -37 71 -36 93 1 22 40 45 32 112 -39 53 -58
96 -131 96 -163 0 -21 -28 -22 -54 -2 -12 9 -42 15 -72 15 -29 0 -54 5 -56 10
-2 6 -54 62 -117 125 l-114 114 26 34 c61 80 56 171 -11 227 -29 24 -46 30
-85 30 -33 0 -49 5 -53 15 -3 8 -22 17 -42 20 -21 3 -45 10 -54 15 -11 6 -19
6 -23 0 -14 -23 -49 -8 -91 39 -43 47 -79 70 -91 57 -3 -3 6 -15 21 -27 45
-36 73 -109 42 -109 -19 0 -56 48 -63 82 -3 16 -14 30 -26 34 -20 6 -20 7 -2
20 31 23 6 33 -90 36 -130 4 -109 22 28 26 110 3 114 3 128 28 16 32 5 53 -39
74 -27 13 -32 20 -30 45 3 29 1 30 -42 35 -56 6 -55 24 1 28 36 3 47 -1 74
-28 32 -31 55 -33 55 -7 0 7 -21 32 -46 56 -33 31 -44 47 -38 59 4 9 7 26 8
37 1 21 -2 21 -77 9 -34 -6 -41 -3 -65 24 -32 37 -82 54 -82 27 0 -9 14 -28
30 -42 20 -17 30 -34 30 -53 0 -40 -47 -83 -51 -47 -1 6 -3 19 -4 27 -1 8 -3
23 -4 33 0 9 -12 23 -26 29 -23 10 -28 8 -53 -21 l-28 -33 -28 40 c-32 47 -56
58 -86 42 -28 -15 -25 -41 9 -71 41 -36 61 -81 61 -138 0 -53 -8 -65 -35 -55
-14 6 -16 15 -11 45 12 74 -48 159 -112 159 -13 0 -23 9 -28 23 -16 54 -67 73
-108 42 -28 -21 -30 -20 -61 26 -34 52 -75 92 -127 125 -36 23 -49 26 -112 22
-49 -3 -87 -12 -123 -29 l-52 -25 -38 23 c-21 12 -48 23 -61 23 -32 0 -68 -26
-82 -60 -7 -17 -17 -30 -22 -30 -25 0 -77 32 -113 69 -37 39 -42 41 -97 41
-50 0 -58 -3 -58 -19 0 -10 8 -22 17 -25 11 -5 13 -10 6 -17 -7 -7 -29 -7 -69
0 -33 6 -90 16 -129 22 -38 7 -111 13 -162 14 -52 0 -97 6 -105 12 -22 19
-223 16 -238 -2 -9 -11 -31 -15 -79 -13 -36 1 -135 -9 -218 -21 -84 -13 -160
-20 -170 -17 -16 7 -16 9 6 25 34 26 18 41 -40 41 -45 0 -54 -4 -97 -46z
m-198 -20 c9 -3 16 -10 16 -15 0 -17 -42 -51 -56 -45 -20 8 -18 43 4 55 21 13
17 12 36 5z m1884 -32 c5 -33 -24 -39 -47 -11 -23 29 -18 41 17 37 19 -2 28
-10 30 -26z m-2153 5 c55 -17 83 -34 96 -58 16 -31 -4 -48 -29 -26 -43 39
-107 15 -141 -51 -17 -33 -55 -26 -59 11 -6 54 -41 22 -42 -38 0 -11 -9 -26
-19 -32 -60 -37 -41 101 22 162 46 44 101 54 172 32z m2490 -3 c20 -8 45 -23
55 -32 36 -35 67 -125 51 -150 -12 -19 -40 -3 -47 27 -12 53 -16 61 -30 61 -8
0 -14 -10 -14 -24 0 -14 -5 -28 -10 -31 -14 -9 -50 4 -50 18 -1 21 -38 57 -69
68 -24 8 -37 7 -62 -5 -39 -19 -39 -19 -39 -2 0 29 98 82 156 85 12 1 38 -6
59 -15z m-1200 -163 c6 -11 -10 -50 -48 -113 -30 -50 -51 -60 -60 -30 -3 9
-15 41 -26 71 -27 71 -19 81 65 81 34 0 65 -4 69 -9z m-1768 -59 c-9 -10 -17
-26 -17 -36 0 -10 -6 -16 -12 -14 -23 8 -20 39 4 62 27 26 50 16 25 -12z
m2444 16 c1 -7 1 -30 0 -50 -3 -46 6 -47 44 -8 30 31 56 39 54 18 -1 -26 -15
-48 -57 -92 -36 -38 -41 -47 -27 -52 9 -4 31 1 49 11 21 11 41 15 52 11 17 -7
16 -10 -11 -31 -30 -24 -42 -31 -149 -80 -75 -34 -151 -102 -135 -121 13 -15
56 -10 112 13 27 12 41 13 49 5 17 -17 3 -37 -43 -61 -23 -12 -68 -42 -98 -65
-34 -26 -71 -45 -95 -49 -71 -11 -78 -29 -89 -216 -2 -43 -1 -45 43 -68 24
-13 48 -30 52 -38 11 -19 -26 -88 -69 -130 -35 -34 -41 -63 -23 -124 7 -27 6
-39 -4 -50 -10 -12 -16 -67 -21 -206 -11 -320 -15 -344 -76 -465 -62 -125
-121 -220 -171 -281 -20 -24 -53 -64 -74 -89 -20 -25 -43 -59 -50 -77 -37 -86
-2 -215 127 -469 108 -211 129 -270 129 -356 0 -60 6 -67 40 -46 30 19 74 -8
78 -48 3 -35 -9 -48 -63 -66 -51 -17 -61 -39 -70 -155 -6 -75 -4 -97 6 -104
21 -13 110 -10 234 6 61 8 135 15 165 15 30 0 109 7 175 16 109 16 122 20 146
46 31 33 52 35 80 7 19 -19 28 -20 112 -13 81 6 97 10 129 36 20 16 66 42 102
58 54 25 79 30 142 30 42 0 97 -7 123 -15 78 -24 166 -45 194 -45 14 0 52 -7
84 -15 31 -8 93 -15 138 -15 74 0 119 -11 99 -22 -5 -3 -43 -13 -84 -22 -140
-31 -336 -94 -405 -130 -16 -9 -37 -16 -46 -16 -8 0 -19 -4 -25 -9 -14 -13
-98 -31 -147 -31 -63 0 -105 17 -162 68 l-50 44 -76 -5 c-87 -6 -109 -14 -129
-51 -17 -33 -35 -33 -64 -1 -23 24 -27 25 -152 25 -71 0 -203 -7 -294 -15 -91
-8 -189 -15 -218 -15 -46 0 -54 -3 -64 -24 -9 -22 -6 -32 26 -80 30 -46 35
-59 26 -76 -7 -14 -7 -24 1 -37 22 -34 101 -93 124 -93 18 0 25 -7 30 -30 7
-34 36 -58 245 -215 80 -60 150 -114 155 -120 6 -6 30 -27 55 -45 25 -19 52
-41 61 -49 25 -25 70 -62 124 -105 28 -22 52 -43 55 -46 3 -4 46 -36 95 -73
50 -36 113 -84 140 -105 28 -21 57 -42 65 -46 8 -3 29 -15 45 -26 52 -33 175
-90 195 -90 30 0 86 -55 136 -136 47 -76 64 -86 95 -58 17 15 22 13 78 -30 33
-25 63 -46 66 -46 4 0 26 -13 49 -28 22 -15 48 -31 56 -35 8 -4 49 -30 90 -57
127 -83 281 -174 362 -213 l77 -38 -23 -42 c-13 -23 -21 -48 -19 -54 7 -19
210 -17 243 2 29 17 83 19 110 5 23 -12 60 -92 60 -129 0 -14 -7 -55 -15 -91
-8 -36 -21 -94 -28 -130 -10 -46 -18 -66 -30 -68 -13 -3 -17 4 -17 27 0 41
-14 46 -63 26 -112 -46 -298 -105 -332 -105 -22 0 -42 12 -74 45 -39 40 -49
45 -88 45 l-43 0 0 -69 c0 -38 -3 -77 -6 -86 -17 -42 -195 -76 -221 -42 -12
14 -60 146 -74 197 -4 19 -9 60 -9 91 0 59 -17 109 -47 145 -10 11 -65 51
-123 89 -119 78 -219 151 -237 173 -7 9 -13 27 -13 40 0 22 -3 24 -32 17 -18
-4 -70 -9 -115 -12 -98 -5 -97 -6 -199 113 -64 74 -144 161 -205 223 -45 46
-177 162 -217 192 -25 18 -56 30 -92 35 -49 6 -60 12 -102 56 -44 48 -48 50
-86 43 -36 -6 -53 0 -171 62 -152 78 -151 78 -171 -26 -42 -204 -115 -475
-146 -533 -8 -14 -14 -42 -14 -62 0 -19 -6 -39 -13 -43 -29 -19 -171 -332
-226 -498 -46 -140 -54 -189 -47 -275 6 -75 5 -79 -21 -110 l-27 -33 -9 -276
c-7 -186 -6 -284 1 -303 5 -15 7 -29 4 -32 -3 -3 -27 -6 -53 -6 -49 0 -70 13
-50 33 7 7 11 47 10 101 -1 67 -3 82 -9 58 -4 -18 -15 -41 -24 -51 -9 -10 -16
-28 -16 -41 0 -13 -5 -39 -12 -57 -9 -25 -9 -46 -1 -88 10 -47 20 -63 65 -106
71 -68 97 -80 187 -86 63 -5 79 -3 90 11 20 24 26 20 46 -26 34 -83 35 -88 25
-106 -6 -9 -19 -44 -29 -77 -11 -36 -25 -61 -34 -63 -9 -2 -33 8 -54 22 -49
34 -105 34 -171 1 -41 -20 -55 -23 -77 -15 -14 5 -40 10 -56 10 -39 0 -80 22
-111 58 -57 68 -121 80 -134 24 -11 -49 -13 -52 -49 -52 -34 0 -69 15 -127 54
-25 16 -28 24 -28 75 0 99 40 258 70 276 5 3 10 24 10 45 0 29 7 45 25 63 17
15 31 45 41 88 9 35 22 91 30 124 8 33 19 80 23 105 5 25 14 70 20 100 6 30
15 89 21 130 6 41 17 87 25 102 13 26 11 30 -26 77 -21 27 -39 58 -39 70 0 11
22 58 49 103 82 139 92 159 112 222 22 71 23 102 8 180 l-12 57 35 37 36 37 6
140 c5 128 12 210 47 555 6 63 13 196 16 295 5 158 4 182 -11 194 -21 18 -46
7 -46 -21 -1 -74 -35 -95 -171 -105 l-88 -6 -48 -51 c-26 -28 -66 -73 -87
-101 -22 -27 -50 -60 -63 -72 -13 -12 -23 -27 -23 -33 0 -5 -4 -10 -8 -10 -5
0 -23 -19 -40 -42 -17 -24 -50 -63 -72 -88 -23 -25 -56 -62 -73 -84 -18 -21
-57 -67 -87 -101 -222 -253 -225 -257 -210 -285 19 -35 28 -119 18 -160 -12
-44 -53 -91 -115 -127 -31 -18 -42 -30 -38 -42 3 -11 -5 -25 -23 -38 -16 -12
-52 -61 -81 -110 -28 -48 -56 -95 -61 -103 -5 -8 -32 -53 -59 -100 -27 -47
-81 -139 -120 -205 -39 -65 -76 -134 -82 -152 -6 -18 -16 -33 -23 -33 -19 0
-65 24 -70 37 -3 6 17 41 44 77 27 35 59 82 70 103 12 21 25 45 30 53 37 62
159 273 177 305 85 159 92 176 81 195 -25 40 -46 31 -125 -56 -43 -46 -85 -84
-95 -84 -10 0 -18 3 -18 6 0 11 44 69 97 126 29 32 53 65 53 73 0 8 -9 29 -20
47 -31 50 -27 132 8 183 59 86 171 116 267 74 l48 -21 56 60 c54 58 97 107
157 182 28 34 46 54 134 150 22 25 55 64 72 88 17 23 35 42 40 42 4 0 8 6 8
14 0 8 4 16 9 18 5 2 42 41 82 88 40 47 78 90 83 96 82 86 75 99 -49 90 l-96
-7 -14 35 c-8 19 -15 56 -15 80 0 61 -38 149 -113 260 l-40 58 0 102 c0 57 4
205 8 329 7 227 7 227 -14 227 -11 0 -21 -3 -21 -7 0 -5 -25 -37 -56 -73 -54
-64 -191 -262 -227 -329 -10 -19 -31 -52 -45 -75 -37 -58 -50 -79 -58 -96 -13
-26 -90 -124 -120 -151 -59 -54 -154 -89 -240 -89 -67 0 -86 -9 -145 -72 -25
-26 -52 -48 -61 -48 -20 0 -26 -15 -33 -82 -10 -83 -32 -122 -82 -142 -26 -11
-53 -15 -71 -11 -21 4 -33 1 -47 -15 -10 -11 -29 -20 -42 -20 -24 0 -132 -54
-266 -134 -43 -25 -80 -46 -82 -46 -3 0 -134 -74 -175 -100 -8 -5 -43 -23 -78
-41 -34 -17 -79 -45 -99 -61 l-37 -29 -18 23 c-36 46 -35 88 2 88 11 0 42 14
70 30 28 17 53 30 55 30 2 0 38 20 78 45 41 25 77 45 80 45 3 0 40 20 81 45
42 25 80 45 84 45 16 0 80 68 108 113 16 27 39 65 51 85 13 21 23 52 23 70 0
58 40 113 90 125 14 4 44 19 68 34 34 22 42 32 37 48 -17 53 -16 65 4 91 18
22 20 36 15 70 -3 23 -2 49 3 58 5 9 126 135 269 279 182 183 288 298 350 382
50 66 94 127 98 135 8 17 21 39 59 97 15 24 27 45 27 49 0 3 50 81 111 173 70
105 136 191 180 234 38 37 69 75 69 83 0 8 -9 32 -19 53 -16 31 -29 41 -71 54
-29 9 -61 17 -71 17 -17 0 -19 8 -19 69 0 55 -4 74 -22 97 -12 16 -23 30 -24
32 -1 2 -37 12 -81 23 -89 21 -126 40 -165 83 -28 30 -95 159 -141 271 -14 33
-44 96 -66 140 -58 112 -53 123 20 52 41 -40 103 -89 140 -112 71 -43 182
-120 218 -152 69 -60 92 -103 98 -192 6 -68 9 -79 38 -108 33 -33 87 -50 128
-39 25 6 87 85 87 110 0 9 -11 34 -25 56 -15 24 -25 55 -25 77 0 54 -14 73
-30 42 -7 -13 -16 -26 -20 -29 -3 -3 -11 -21 -17 -40 l-11 -35 -1 37 c-1 20 4
40 9 43 6 3 10 14 10 24 0 35 114 145 192 185 40 20 82 46 93 56 28 26 317
173 382 194 60 20 65 19 181 -35 45 -22 88 -39 95 -39 6 0 20 28 30 63 19 61
57 175 72 209 5 13 0 20 -19 28 -23 8 -25 12 -14 29 12 19 5 40 -67 206 -7 17
-17 42 -23 58 -7 15 -18 27 -25 27 -13 0 -100 -199 -117 -269 -13 -53 -52 -67
-58 -22 -2 12 1 27 6 34 9 11 67 148 98 230 8 20 21 55 30 77 18 42 17 46 -16
130 -12 30 -26 69 -30 85 -5 17 -28 84 -51 151 -23 67 -39 129 -36 138 5 11
19 16 51 16 49 0 56 -6 67 -59 4 -20 14 -54 23 -76 8 -22 23 -62 34 -90 19
-52 47 -71 58 -38 13 40 46 122 83 206 32 72 63 60 36 -15 -9 -24 -27 -75 -40
-114 -13 -38 -35 -97 -50 -130 -28 -64 -28 -71 5 -154 12 -30 25 -66 30 -80 5
-14 18 -50 30 -80 12 -30 24 -65 27 -77 3 -12 14 -30 24 -39 19 -17 21 -15 69
37 27 30 52 63 55 74 2 11 6 157 7 325 l3 305 29 3 c45 5 76 -6 76 -28 0 -10
-4 -22 -10 -25 -6 -4 -10 -80 -10 -196 0 -163 2 -190 16 -196 21 -8 35 9 44
54 17 84 43 170 62 205 20 35 21 54 6 153 -3 17 3 20 44 23 39 3 49 -1 62 -20
l17 -23 47 50 c26 28 66 73 87 100 22 28 66 79 97 114 32 35 58 70 58 77 0 17
29 18 31 2z m904 -4 c14 -9 25 -25 25 -35 0 -34 -18 -29 -39 11 -23 44 -21 47
14 24z m-3197 -16 c-8 -23 -57 -53 -69 -41 -19 19 7 53 42 53 19 0 29 -4 27
-12z m3090 -15 c4 -26 2 -27 -33 -11 -35 16 -33 40 3 36 19 -2 28 -9 30 -25z
m-3739 -282 c11 -7 9 -10 -8 -16 -11 -3 -21 -13 -21 -21 0 -31 -40 -94 -60
-94 -13 0 -20 6 -19 18 1 27 33 76 57 87 12 5 22 15 22 22 0 15 9 16 29 4z
m442 -146 c-3 -64 -14 -95 -34 -95 -7 0 -34 20 -61 43 l-49 43 59 37 c80 50
90 47 85 -28z m3627 -15 c28 -19 28 -32 -1 -46 -12 -6 -46 -23 -75 -38 -58
-31 -88 -29 -78 7 4 12 9 45 12 72 9 78 7 77 66 47 29 -15 63 -34 76 -42z
m-4283 -50 c6 -10 -19 -38 -53 -57 -26 -15 -37 -3 -28 32 4 16 15 25 34 28 15
2 30 5 34 6 4 0 9 -3 13 -9z m4793 4 c33 -7 46 -26 37 -55 -5 -16 -9 -17 -27
-6 -29 17 -58 45 -58 57 0 12 7 12 48 4z m-5028 -82 c0 -10 14 -30 31 -45 39
-34 31 -46 -16 -24 -35 17 -53 52 -41 83 7 19 26 9 26 -14z m1286 1 c5 -27
149 -321 182 -375 52 -83 104 -165 115 -183 42 -66 92 -128 108 -132 11 -3 19
-11 19 -19 0 -16 -89 -86 -104 -81 -6 2 -19 26 -31 53 -11 27 -35 76 -54 109
-48 84 -69 122 -99 177 -15 27 -31 57 -37 66 -5 9 -28 49 -50 87 -22 39 -45
79 -52 90 -6 11 -18 34 -26 51 -8 18 -31 50 -51 72 -20 22 -36 42 -36 46 0 10
82 66 96 66 8 0 16 -12 20 -27z m3964 -4 c0 -32 -17 -55 -50 -69 -43 -18 -48
-6 -11 25 17 15 31 35 31 44 0 10 3 21 6 24 11 11 24 -3 24 -24z m-4165 -211
c0 -68 7 -161 15 -207 14 -81 16 -85 60 -120 43 -34 179 -150 190 -161 22 -23
103 -82 140 -100 l44 -23 -29 -23 c-17 -13 -34 -24 -39 -24 -5 0 -17 -7 -27
-16 -21 -19 -46 -13 -57 14 -8 22 -215 202 -231 202 -14 0 -15 -95 -1 -120 6
-11 14 -51 19 -89 6 -44 17 -81 30 -100 l21 -29 -32 -20 c-18 -12 -36 -18 -40
-16 -4 3 -8 42 -8 87 0 45 -7 107 -15 137 -8 30 -15 76 -15 102 0 80 -12 98
-146 218 -64 57 -156 134 -196 164 -21 16 -38 34 -38 41 0 6 23 26 50 43 l51
32 9 -23 c12 -30 43 -64 124 -137 58 -51 72 -59 81 -47 13 19 2 226 -15 267
-11 26 -10 33 5 50 10 11 25 20 34 20 14 0 16 -17 16 -122z m3243 44 c2 -7 -8
-28 -24 -45 -31 -34 -74 -93 -74 -101 0 -3 -54 -96 -121 -208 -162 -272 -176
-298 -184 -341 -6 -30 -12 -37 -30 -37 -12 0 -28 7 -35 15 -7 8 -18 15 -26 15
-26 0 -25 21 3 58 29 37 93 138 93 147 0 2 33 60 73 127 40 68 76 130 80 138
4 8 11 22 17 30 38 59 97 164 117 208 l23 53 41 -23 c23 -13 44 -29 47 -36z
m-4750 -403 c-3 -30 -30 -60 -42 -48 -3 3 -1 22 5 42 13 47 42 52 37 6z m6096
15 c3 -9 6 -27 6 -40 0 -22 -3 -23 -20 -14 -13 7 -20 21 -20 40 0 32 23 42 34
14z m-6101 -592 c15 -48 28 -93 27 -100 0 -10 -20 -12 -82 -10 -67 2 -83 6
-86 19 -4 20 88 179 103 179 5 0 23 -39 38 -88z m6227 -37 c56 -93 57 -99 18
-91 -18 4 -62 9 -98 12 -36 4 -69 10 -73 14 -5 4 12 31 37 59 25 28 46 56 46
62 0 28 37 -2 70 -56z m-5890 -16 c0 -17 95 -158 135 -200 8 -9 15 -19 15 -22
0 -3 16 -22 36 -42 32 -32 45 -37 122 -50 132 -21 273 -35 346 -35 56 0 66 -3
66 -17 0 -26 -42 -112 -58 -118 -7 -3 -41 4 -75 14 -63 20 -153 40 -219 48
-49 7 -50 -13 -6 -71 18 -22 37 -47 43 -54 5 -7 18 -21 28 -30 9 -9 17 -21 17
-27 0 -14 41 -52 72 -65 19 -9 24 -17 20 -36 -6 -34 -28 -50 -47 -34 -8 7 -15
19 -15 26 0 19 -32 68 -118 182 -83 111 -111 134 -171 144 -82 13 -203 38
-240 48 -20 5 -71 10 -113 10 -42 0 -79 4 -82 8 -9 15 53 102 74 102 11 0 20
-4 20 -10 0 -5 9 -10 21 -10 11 0 29 -5 40 -11 11 -6 55 -14 97 -19 42 -5 94
-12 116 -16 37 -7 38 -6 31 17 -4 13 -13 29 -21 35 -8 6 -14 14 -14 18 0 4
-20 28 -44 54 -142 151 -137 144 -110 173 19 21 34 16 34 -12z m5542 -58 l26
-49 -38 -6 c-44 -7 -98 -31 -157 -69 -24 -15 -45 -27 -48 -27 -3 0 -36 -19
-73 -43 -37 -24 -107 -68 -155 -98 -48 -30 -100 -62 -115 -71 -15 -9 -46 -27
-69 -39 -24 -12 -53 -33 -65 -46 -29 -31 -41 -29 -58 10 -7 17 -15 35 -17 39
-3 4 21 19 51 33 31 14 82 43 113 64 153 101 185 121 189 121 2 0 23 12 47 27
58 38 80 51 97 60 33 16 167 98 195 120 17 12 35 23 40 23 6 0 22 -22 37 -49z
m104 -186 c25 -46 23 -55 -14 -56 -15 0 -47 -11 -72 -24 -25 -13 -56 -29 -69
-35 -14 -6 -54 -30 -90 -54 -36 -24 -109 -70 -161 -103 -52 -32 -124 -76 -159
-98 -35 -22 -84 -55 -108 -73 -25 -18 -51 -31 -58 -28 -18 7 -49 72 -42 90 3
7 17 16 31 20 15 4 82 40 151 81 69 41 127 75 130 75 3 0 38 20 78 44 39 24
99 58 132 76 33 18 79 46 103 61 24 16 47 29 51 29 4 0 16 9 26 20 26 29 44
22 71 -25z m-5346 -1280 l0 -65 -35 0 c-20 0 -52 -7 -72 -15 -19 -8 -43 -15
-52 -15 -9 0 -29 -7 -45 -15 -15 -8 -34 -15 -41 -15 -7 0 -33 -9 -59 -20 -41
-19 -45 -24 -40 -45 7 -28 -9 -33 -49 -14 -25 11 -42 7 -167 -41 -30 -12 -66
-25 -80 -30 -74 -26 -119 -44 -165 -66 -29 -13 -55 -24 -58 -24 -4 0 -7 30 -7
66 l0 67 30 -7 c17 -3 52 1 78 9 111 35 149 49 185 67 38 19 42 38 8 38 -10 0
-24 7 -31 15 -7 8 -23 15 -35 15 -12 0 -28 7 -35 15 -7 8 -21 15 -32 15 -10 0
-30 7 -43 16 -14 9 -46 18 -72 19 -46 3 -48 4 -51 35 -3 31 -2 32 25 25 15 -3
35 -13 44 -21 8 -8 20 -14 25 -14 6 0 37 -13 69 -30 32 -16 66 -30 76 -30 9 0
22 -7 29 -15 7 -8 23 -15 35 -15 12 0 28 -7 35 -15 16 -19 59 -19 102 -1 18 8
51 21 73 29 114 43 233 94 295 127 56 30 60 27 60 -45z m5280 -36 c206 1 394
4 417 8 39 5 43 3 48 -20 4 -14 5 -36 3 -48 -3 -23 -6 -24 -68 -19 -36 3 -150
5 -255 5 -104 0 -273 -2 -375 -5 l-185 -5 -3 33 c-5 47 4 66 26 56 9 -4 186
-7 392 -5z m-6452 -160 c26 -23 57 -45 70 -50 30 -11 24 -30 -14 -48 -16 -8
-37 -18 -46 -23 -10 -4 -27 -14 -38 -20 -17 -11 -22 -10 -30 2 -17 27 -11 180
7 180 3 0 26 -18 51 -41z m7237 -88 c0 -54 -4 -96 -10 -97 -5 -2 -26 10 -45
27 -19 17 -54 45 -78 62 -51 37 -46 43 43 72 30 9 55 21 55 27 0 5 8 8 18 6
15 -3 17 -16 17 -97z m-6329 54 c4 -8 18 -15 34 -15 15 0 33 -7 40 -15 7 -8
23 -15 36 -15 12 0 35 -5 51 -11 15 -6 43 -11 61 -11 26 0 33 -5 38 -25 12
-46 -11 -51 -76 -15 -33 17 -67 32 -75 32 -9 0 -18 7 -21 15 -4 8 -18 15 -34
15 -15 0 -33 6 -40 14 -6 8 -25 16 -42 18 -18 2 -33 9 -36 16 -6 18 57 16 64
-3z m5510 -2 c182 -2 362 0 400 5 87 12 98 5 89 -57 -9 -62 -12 -65 -42 -41
-25 19 -40 20 -392 20 -307 0 -370 -2 -387 -15 -40 -30 -54 -20 -54 38 0 61 6
71 35 61 11 -4 169 -9 351 -11z m-226 -209 c30 3 201 6 380 7 l325 1 3 -47 c5
-70 -2 -81 -35 -60 -23 15 -62 18 -292 23 -167 3 -316 0 -400 -7 -150 -13
-151 -13 -151 50 0 51 13 59 68 42 30 -9 67 -12 102 -9z m-5421 -44 l389 0 4
-42 c6 -55 0 -72 -21 -61 -17 9 -690 11 -781 3 l-55 -5 -3 54 c-4 77 0 84 42
66 29 -12 105 -15 425 -15z m5141 -694 c0 -11 99 -86 115 -86 2 0 37 -19 77
-43 40 -24 80 -46 88 -50 8 -4 42 -22 75 -40 33 -19 83 -46 110 -61 28 -15 77
-43 110 -62 33 -19 84 -46 112 -60 l53 -25 -20 -38 c-21 -43 -48 -59 -56 -36
-5 12 -94 77 -165 120 -9 6 -49 30 -88 55 -40 25 -94 56 -120 70 -27 14 -55
30 -62 36 -44 35 -242 134 -268 134 -27 0 -27 23 0 66 21 35 39 44 39 20z
m-4537 -77 c29 -55 28 -69 -7 -69 -22 0 -124 -49 -155 -73 -14 -12 -47 -32
-71 -43 -8 -4 -46 -26 -85 -49 -38 -22 -77 -44 -85 -48 -8 -4 -28 -16 -45 -26
-26 -17 -71 -42 -150 -85 -38 -20 -115 -79 -115 -88 0 -4 -6 -8 -14 -8 -14 0
-56 58 -56 78 0 6 19 20 43 32 23 11 49 25 57 30 8 5 100 60 203 122 104 62
201 121 215 130 15 10 34 21 42 25 28 14 158 102 165 113 13 21 31 8 58 -41z
m4447 -109 c11 -21 105 -85 205 -140 33 -18 76 -43 95 -55 19 -12 69 -40 110
-62 41 -22 91 -50 110 -61 19 -12 70 -38 112 -59 43 -21 77 -43 78 -49 0 -16
-28 -70 -45 -84 -11 -9 -21 -5 -49 24 -20 19 -67 54 -106 78 -39 24 -83 51
-98 60 -48 30 -69 42 -202 111 -72 37 -149 79 -172 93 -22 14 -60 34 -84 44
-24 11 -44 24 -44 30 0 20 50 90 65 90 8 0 19 -9 25 -20z m-4344 -76 c19 -39
14 -50 -26 -59 -24 -5 -110 -54 -435 -246 -16 -10 -66 -36 -110 -59 -112 -58
-123 -64 -149 -89 -22 -20 -23 -20 -38 -4 -9 10 -23 33 -32 51 l-17 32 48 20
c67 28 112 53 236 132 60 37 110 68 112 68 3 0 45 25 96 55 50 31 122 72 160
92 37 19 76 44 85 54 16 18 18 18 36 2 10 -9 26 -32 34 -49z m4230 -125 c10
-12 28 -25 39 -30 22 -10 32 -16 125 -76 37 -24 70 -43 75 -43 5 0 16 -6 24
-14 9 -7 43 -28 76 -46 33 -18 67 -38 75 -45 28 -24 235 -128 265 -135 35 -7
46 -41 22 -68 -8 -9 -17 -25 -21 -36 -4 -12 -10 -15 -19 -9 -6 5 -32 25 -57
44 -25 19 -54 39 -65 46 -305 186 -561 323 -604 323 -32 0 -24 40 18 93 18 22
24 22 47 -4z m-4056 -194 c0 -8 -3 -15 -7 -15 -5 0 -33 -24 -63 -53 -30 -29
-100 -93 -155 -142 -55 -48 -122 -110 -150 -136 -27 -26 -72 -65 -100 -87 -59
-46 -155 -146 -155 -161 0 -6 -7 -11 -15 -11 -16 0 -75 75 -75 96 0 7 19 27
43 45 23 19 85 75 137 125 52 50 125 118 162 152 37 34 69 66 70 70 3 14 -35
14 -71 -1 -67 -27 -136 -47 -162 -47 -14 0 -29 -4 -35 -9 -5 -6 -27 -14 -49
-20 -90 -23 -133 -37 -146 -47 -24 -18 -77 -36 -88 -29 -6 3 -11 15 -11 26 0
15 7 19 38 19 20 1 48 7 62 15 14 8 40 14 58 15 18 0 40 7 48 15 9 8 28 15 43
15 16 0 34 7 41 15 7 8 27 15 44 15 18 0 41 7 52 15 10 8 29 15 41 15 12 0 37
6 55 14 73 30 173 60 258 76 25 5 56 13 70 19 37 14 60 13 60 -4z m-1152 -253
c34 -4 63 -11 63 -15 1 -5 -20 -38 -46 -73 -44 -60 -49 -63 -65 -49 -24 22
-70 112 -70 137 0 17 4 19 28 13 15 -4 55 -10 90 -13z m6197 2 c99 -13 101
-16 55 -94 -16 -28 -30 -55 -30 -60 0 -43 -73 67 -109 163 -2 6 5 7 20 3 13
-4 42 -9 64 -12z m-4451 -295 c20 -12 36 -25 36 -30 0 -5 -12 -22 -26 -39 -28
-31 -134 -204 -173 -280 -12 -25 -38 -72 -57 -105 -19 -33 -39 -69 -45 -80
-11 -22 -22 -40 -60 -100 -14 -22 -33 -61 -43 -87 -10 -27 -21 -48 -26 -48
-17 0 -65 22 -82 37 -16 14 -15 18 21 62 21 25 59 82 85 126 25 44 51 87 56
95 5 8 20 35 33 60 14 25 34 61 46 80 11 19 27 49 35 65 8 17 29 53 45 80 31
51 74 136 84 168 8 23 28 22 71 -4z m2706 -227 c155 -160 238 -247 364 -384
106 -116 111 -129 55 -162 -34 -20 -59 -15 -59 12 0 10 -32 51 -71 92 -39 41
-122 133 -186 203 -64 70 -120 124 -124 120 -4 -4 5 -48 21 -98 17 -49 37
-115 46 -145 44 -149 56 -181 92 -262 l22 -48 -22 -20 c-30 -28 -48 -25 -48 7
0 28 -19 96 -57 208 -14 39 -28 84 -32 100 -5 17 -13 41 -18 55 -6 14 -18 52
-28 85 -10 33 -23 78 -30 100 -7 22 -20 67 -30 100 -9 33 -23 75 -31 93 -17
40 -18 72 -2 72 7 0 69 -58 138 -128z m-2405 29 c3 -5 -1 -25 -9 -43 -8 -18
-35 -100 -61 -183 -26 -82 -53 -166 -60 -185 -12 -34 -30 -94 -61 -207 -8 -32
-22 -79 -30 -104 -8 -26 -14 -55 -14 -66 0 -32 -10 -33 -66 -5 -57 28 -62 36
-41 61 17 21 41 82 61 156 24 87 42 149 71 242 14 45 25 92 25 105 0 25 12 37
-200 -188 -52 -56 -114 -122 -137 -147 -24 -25 -43 -52 -43 -61 0 -19 -13 -20
-41 -6 -20 11 -27 40 -9 40 6 0 58 50 118 111 257 267 477 489 483 489 4 0 10
-4 14 -9z m-2005 -147 c0 -23 -5 -34 -15 -34 -16 0 -30 42 -21 65 10 27 36 5
36 -31z m3175 -141 c3 -21 10 -63 16 -93 6 -30 15 -77 20 -105 4 -27 18 -81
29 -120 11 -38 24 -93 30 -122 16 -94 55 -233 81 -291 22 -50 17 -55 -52 -50
l-44 3 -8 55 c-9 65 -34 188 -49 245 -7 22 -15 63 -19 90 -9 66 -29 165 -39
190 -6 17 -10 15 -25 -20 -9 -22 -21 -62 -25 -90 -10 -57 -25 -120 -46 -186
-8 -26 -14 -62 -14 -80 0 -19 -7 -54 -16 -79 -8 -24 -14 -62 -12 -85 3 -36 0
-40 -21 -43 -32 -5 -48 12 -31 33 8 9 17 38 21 63 13 79 31 155 45 197 8 23
14 56 14 75 1 19 7 46 15 60 8 14 15 41 15 60 0 19 7 46 15 60 8 14 14 39 15
57 0 17 5 44 11 60 6 15 15 50 20 77 15 80 44 101 54 39z m-2692 -369 c4 -4
-8 -14 -26 -23 -17 -9 -34 -25 -35 -36 -6 -34 -20 -40 -28 -11 -5 21 -1 33 17
52 21 23 58 32 72 18z m5176 -25 c12 -21 12 -32 4 -50 -10 -23 -11 -23 -18 -4
-13 40 -22 50 -54 61 -39 13 -29 26 18 22 26 -2 39 -10 50 -29z m-176 -97
c-13 -21 -83 -29 -83 -10 0 7 17 25 38 40 36 26 37 26 46 6 6 -13 6 -26 -1
-36z m-4840 10 c26 -23 21 -32 -17 -32 -39 0 -60 20 -51 50 5 17 10 18 28 9
12 -6 30 -18 40 -27z m4272 -88 c36 -27 30 -37 -56 -88 -80 -48 -89 -47 -89 9
0 56 19 148 33 157 6 4 27 -8 47 -25 19 -18 48 -42 65 -53z m-3607 -42 c3 -95
-3 -100 -72 -54 -22 15 -49 31 -58 34 -9 4 -22 16 -28 28 -9 17 -8 21 7 26 10
3 41 16 68 30 75 36 80 32 83 -64z m3992 6 c-1 -41 -61 -124 -84 -115 -10 4
-8 17 14 62 35 73 70 99 70 53z m-4493 0 c5 -7 16 -29 23 -48 7 -19 20 -41 28
-47 22 -18 -2 -17 -38 2 -26 13 -60 68 -60 96 0 14 36 11 47 -3z m243 -163 c0
-10 -11 -15 -35 -15 -54 0 -43 27 13 29 13 1 22 -5 22 -14z m4026 0 c18 -13
16 -14 -23 -15 -32 0 -43 4 -43 15 0 19 40 20 66 0z m-3726 -230 c0 -12 7 -26
16 -29 8 -3 12 -11 9 -16 -12 -19 -58 36 -50 60 8 26 25 16 25 -15z m3265 -1
c0 -14 -8 -20 -32 -22 -38 -4 -42 9 -10 31 27 20 42 16 42 -9z m125 3 c0 -19
-47 -59 -55 -47 -3 5 1 13 9 16 9 3 16 14 16 23 0 10 3 21 6 24 9 9 24 -1 24
-16z m-3249 3 c10 -6 19 -15 19 -20 0 -16 -57 -12 -63 4 -10 26 11 33 44 16z
m175 -87 c18 -84 35 -102 44 -48 7 43 44 47 64 6 30 -58 88 -77 134 -45 23 16
42 12 42 -10 0 -27 -112 -86 -161 -86 -75 0 -150 67 -168 149 -11 51 -8 61 19
61 13 0 22 -9 26 -27z m2778 19 c10 -16 -15 -96 -42 -133 -29 -41 -83 -69
-133 -69 -44 0 -149 58 -149 81 0 23 18 24 47 4 35 -25 104 11 124 63 13 35
52 26 59 -12 3 -17 9 -30 15 -30 8 -1 26 40 41 92 4 13 30 16 38 4z m-2320
-205 c-9 -25 -43 -21 -56 8 -8 19 -8 28 2 40 12 15 16 14 37 -8 15 -15 21 -29
17 -40z m1876 24 c0 -20 -19 -41 -37 -41 -22 0 -26 27 -7 54 13 21 19 24 30
15 8 -6 14 -19 14 -28z"/>
<path d="M3054 10286 c-3 -8 -4 -31 -2 -52 4 -48 28 -56 63 -22 34 31 34 62 0
56 -18 -4 -26 0 -30 13 -7 22 -23 25 -31 5z"/>
<path d="M2483 7381 c-61 -24 -91 -56 -99 -107 -9 -62 10 -110 59 -146 38 -27
48 -29 101 -26 52 4 63 8 92 40 76 84 60 188 -36 229 -56 25 -76 26 -117 10z"/>
<path d="M6286 7218 c4 -13 10 -25 13 -28 39 -29 50 -39 68 -65 24 -34 125
-90 158 -87 11 1 43 -10 70 -23 52 -27 75 -31 75 -15 0 12 -82 73 -125 94 -17
8 -47 26 -68 40 -21 14 -41 26 -44 26 -4 0 -14 6 -22 14 -22 18 -109 66 -122
66 -6 0 -7 -9 -3 -22z"/>
<path d="M7809 10310 c-45 -13 -78 -40 -84 -69 -9 -42 3 -75 34 -94 25 -15 30
-14 67 2 49 22 76 71 39 71 -17 0 -20 25 -5 35 16 10 12 52 -6 59 -9 3 -16 6
-17 5 -1 0 -14 -4 -28 -9z"/>
<path d="M213 10294 c-3 -8 0 -26 7 -40 12 -21 11 -26 -6 -38 -19 -14 -18 -15
4 -39 13 -14 37 -31 52 -37 24 -10 33 -9 54 7 29 21 42 67 27 104 -17 46 -124
79 -138 43z"/>
<path d="M9625 9791 c-11 -5 -31 -21 -45 -35 -23 -26 -24 -31 -20 -134 8 -177
2 -410 -14 -532 -38 -295 -45 -541 -16 -634 6 -21 31 -58 55 -82 43 -42 47
-44 106 -44 57 0 64 3 93 33 18 20 54 88 86 163 59 140 131 277 191 364 60 86
76 102 100 98 31 -4 46 -61 79 -308 37 -270 117 -375 275 -356 75 9 100 39
100 121 0 51 -6 76 -31 127 -38 75 -64 153 -64 188 1 73 -55 372 -77 407 -7
12 -13 29 -13 37 0 8 -21 37 -47 63 -101 103 -238 104 -354 4 -43 -37 -139
-151 -139 -165 0 -3 -11 -22 -25 -42 -36 -53 -40 -27 -20 119 12 86 16 170 13
287 -3 157 -4 168 -31 222 -19 39 -39 63 -65 79 -41 24 -106 34 -137 20z"/>
<path d="M10887 9772 c-47 -12 -93 -57 -106 -105 -25 -88 31 -178 130 -211 69
-22 106 -20 159 7 64 32 85 66 85 136 -1 67 -25 112 -81 151 -36 24 -133 35
-187 22z"/>
<path d="M9000 9685 c-206 -45 -405 -148 -514 -266 -73 -79 -96 -132 -96 -224
0 -150 78 -245 290 -352 36 -18 68 -33 73 -33 12 0 200 -92 230 -112 15 -11
27 -28 27 -39 0 -10 -1 -19 -2 -19 -2 0 -49 -9 -106 -20 -130 -25 -198 -25
-292 2 -144 40 -183 34 -210 -32 -20 -49 10 -130 67 -179 76 -67 130 -81 318
-81 281 0 426 52 513 182 24 37 27 50 27 134 0 91 -1 93 -39 148 -62 91 -157
154 -361 240 -227 97 -273 146 -202 213 54 52 199 111 357 147 199 46 215 57
215 151 0 73 -20 109 -76 137 -40 20 -136 21 -219 3z"/>
<path d="M12104 9685 c-39 -7 -100 -25 -136 -39 -35 -14 -68 -26 -71 -26 -16
0 -148 -87 -202 -134 -192 -164 -300 -344 -340 -561 -19 -101 -19 -162 0 -251
29 -138 89 -228 196 -290 74 -44 137 -57 269 -57 127 0 184 12 295 58 51 22
175 104 175 116 0 5 6 9 14 9 13 0 46 -86 46 -118 0 -24 64 -150 96 -189 76
-92 194 -110 254 -38 22 27 15 126 -15 186 -68 140 -95 252 -95 401 l0 118 28
6 c52 11 60 15 86 35 55 43 73 147 36 199 -13 18 -35 31 -64 39 -135 34 -589
-22 -711 -87 -46 -25 -64 -52 -65 -98 -1 -104 106 -167 230 -135 19 5 56 12
83 15 41 5 47 3 47 -13 0 -10 -27 -44 -61 -75 -134 -124 -360 -181 -465 -117
-75 46 -97 190 -50 324 71 200 219 352 389 402 74 21 101 14 132 -34 28 -46
49 -55 102 -45 67 12 119 69 143 157 23 86 -4 180 -64 217 -61 38 -161 47
-282 25z"/>
<path d="M14565 9325 c-98 -24 -166 -65 -256 -154 -122 -122 -184 -227 -233
-390 -23 -76 -22 -226 2 -280 27 -60 83 -115 149 -146 51 -25 69 -28 163 -28
102 0 108 2 183 38 57 28 93 54 136 101 55 58 131 172 131 195 0 27 22 0 59
-73 49 -99 56 -110 100 -168 56 -73 80 -89 133 -90 60 0 109 39 132 107 28 81
17 118 -56 205 -36 43 -111 180 -128 236 -5 15 -18 52 -30 82 -12 30 -25 64
-28 75 -21 62 -102 135 -150 135 -29 0 -59 27 -65 58 -8 39 -56 83 -109 99
-51 15 -67 15 -133 -2z m125 -300 c0 -19 -4 -44 -9 -57 -5 -13 -19 -54 -31
-93 -52 -163 -157 -275 -258 -275 -47 0 -56 19 -41 87 22 101 66 180 143 258
66 67 168 131 188 119 5 -3 8 -20 8 -39z"/>
<path d="M17030 9326 c-135 -38 -270 -144 -327 -257 -55 -111 -63 -142 -63
-251 0 -112 14 -165 61 -231 31 -43 95 -94 151 -119 48 -22 194 -32 279 -20
84 13 189 62 239 112 22 22 42 35 45 29 15 -23 27 -81 40 -186 25 -214 -17
-283 -172 -283 -84 0 -196 30 -229 61 -14 13 -24 34 -24 50 0 15 -10 40 -23
55 -18 21 -32 26 -65 26 -54 -1 -88 -18 -125 -64 -26 -33 -29 -43 -29 -111 1
-63 5 -82 26 -115 67 -107 207 -166 416 -176 234 -12 364 35 451 160 59 86 69
132 69 320 0 167 -6 217 -44 394 -29 133 -45 218 -60 320 -14 88 -21 109 -44
133 -41 43 -75 57 -140 57 -55 0 -62 3 -99 39 -23 21 -63 46 -89 55 -56 19
-178 20 -244 2z m278 -311 c28 -22 52 -43 52 -47 0 -23 -54 -111 -87 -143 -75
-73 -192 -109 -277 -85 -57 16 -71 41 -62 114 7 59 58 126 128 167 59 35 72
38 138 35 47 -2 63 -8 108 -41z"/>
<path d="M16055 9321 c-92 -26 -196 -110 -283 -228 -25 -34 -49 -60 -53 -57
-5 3 -6 31 -2 63 9 95 -3 150 -44 188 -28 27 -42 33 -80 33 -51 0 -108 -29
-118 -61 -4 -11 -11 -66 -15 -122 -10 -118 -25 -229 -40 -306 -5 -29 -10 -110
-10 -178 0 -153 18 -227 71 -284 35 -38 38 -39 101 -39 58 0 67 3 91 28 15 16
41 67 58 113 16 46 37 102 45 124 8 22 18 49 21 59 10 33 103 207 135 253 40
59 111 130 139 138 17 6 27 2 41 -15 15 -19 18 -42 18 -155 0 -259 63 -463
162 -523 67 -40 159 -35 206 12 19 19 26 38 29 78 4 56 2 60 -57 148 -53 79
-69 159 -70 334 0 216 -32 314 -119 372 -32 21 -54 26 -118 30 -43 2 -91 -1
-108 -5z"/>
<path d="M10892 9301 c-39 -22 -63 -53 -82 -106 -16 -43 -16 -198 -1 -586 7
-181 9 -199 30 -225 37 -47 59 -57 132 -58 58 0 72 3 93 23 48 45 56 78 56
228 0 76 5 230 10 342 13 252 4 316 -47 367 -31 32 -38 34 -96 33 -40 0 -73
-6 -95 -18z"/>
<path d="M12992 9293 c-36 -32 -55 -81 -84 -213 -46 -219 21 -476 162 -616
104 -103 191 -137 355 -137 104 0 113 2 179 34 190 93 296 325 299 654 2 176
-20 235 -105 288 -34 21 -106 22 -136 1 -44 -30 -47 -49 -48 -264 -1 -180 -3
-212 -21 -261 -33 -89 -51 -117 -95 -149 -99 -72 -241 -6 -288 133 -25 77 -27
205 -4 274 9 26 17 80 18 118 1 60 -3 75 -22 100 -37 47 -72 65 -127 65 -41 0
-57 -5 -83 -27z"/>
<path d="M260 7822 c-52 -24 -80 -62 -46 -62 24 0 27 -17 9 -49 -16 -27 -16
-32 -3 -45 13 -13 21 -13 51 -3 69 24 84 40 84 90 0 34 -5 50 -20 61 -21 16
-50 19 -75 8z"/>
<path d="M7749 7813 c-9 -10 -20 -32 -23 -49 -6 -25 -2 -38 19 -63 15 -17 36
-31 49 -31 12 0 27 -5 34 -12 10 -9 16 -8 30 5 16 17 16 19 -1 48 -18 32 -15
49 9 49 8 0 14 6 14 13 0 43 -102 74 -131 40z"/>
</g>
</svg>
